<svg width="100" height="100" viewBox="0 0 100 100" xmlns="http://www.w3.org/2000/svg">
  <!-- Favicon tile: warm-cream ground so the mark reads on both dark browser
       tabs and Google's white search results. In-app uses keep logo.svg
       (light-on-transparent) for the dark UI. -->
  <rect width="100" height="100" rx="22" fill="#EFE9E0"/>
  <g transform="translate(50 50) scale(0.78) translate(-50 -50)">
    <path d="M52 48 C60 30 74 14 91 7 C87 25 72 41 52 48 Z" fill="#F97316"/>
    <path d="M52 48 C60 30 74 14 91 7 C87 25 72 41 52 48 Z" fill="#211F1C" transform="rotate(-90 50 50) translate(9 9) scale(0.82)"/>
    <path d="M52 48 C60 30 74 14 91 7 C87 25 72 41 52 48 Z" fill="#211F1C" transform="rotate(90 50 50) translate(6 6) scale(0.88)"/>
    <path d="M52 48 C60 30 74 14 91 7 C87 25 72 41 52 48 Z" fill="#211F1C" transform="rotate(180 50 50) translate(18 18) scale(0.64)"/>
  </g>
</svg>
